<svg width="402" height="402" viewBox="0 0 402 402" fill="none" xmlns="http://www.w3.org/2000/svg">
<rect width="402" height="402" rx="80" fill="#FF5200"/>
<path d="M227.123 269.006V72.0865L289 47V243.919C289 262.255 275.027 286.769 267.5 299.374C259.973 311.98 234.65 337.638 221.382 344.259C208.242 350.753 193.124 354 176.028 354C158.933 354 143.751 351.071 130.483 345.214C117.215 339.357 106.818 330.444 99.2906 318.474C91.7635 306.505 88 291.416 88 273.208H124.934C124.934 284.922 127.102 294.536 131.44 302.048C135.778 309.561 141.774 315.1 149.428 318.665C157.211 322.231 166.077 324.013 176.028 324.013C185.724 324.013 194.399 321.976 202.054 317.901C209.836 313.699 215.96 307.524 220.425 299.374C224.89 291.098 227.123 280.975 227.123 269.006Z" fill="white"/>
</svg>
