<svg width="201" height="307" viewBox="0 0 201 307" fill="none" xmlns="http://www.w3.org/2000/svg">
<path d="M139.123 222.006V25.0865L201 0V196.919C201 215.255 187.027 239.769 179.5 252.374C171.973 264.98 146.65 290.638 133.382 297.259C120.242 303.753 105.124 307 88.0283 307C70.933 307 55.7513 304.071 42.4832 298.214C29.2152 292.357 18.8176 283.444 11.2906 271.474C3.76353 259.505 0 244.416 0 226.208H36.9336C36.9336 237.922 39.1024 247.536 43.4401 255.048C47.7777 262.561 53.7738 268.1 61.4284 271.665C69.2107 275.231 78.0773 277.013 88.0283 277.013C97.7242 277.013 106.399 274.976 114.054 270.901C121.836 266.699 127.96 260.524 132.425 252.374C136.89 244.098 139.123 233.975 139.123 222.006Z" fill="white"/>
</svg>
